<mxfile host="app.diagrams.net" modified="2020-06-05T16:08:30.353Z" agent="5.0 (Macintosh; Intel Mac OS X 10_14_6) AppleWebKit/537.36 (KHTML, like Gecko) Chrome/85.0.4160.0 Safari/537.36 Edg/85.0.537.0" etag="uIhGZlO_0bA0DFR2EIP1" version="13.1.14" type="github" pages="2">
  <diagram id="GUZp1yqy1DNV-uzC5Edy" name="Page-1">
    <mxGraphModel dx="1251" dy="2451" grid="1" gridSize="10" guides="1" tooltips="1" connect="1" arrows="1" fold="1" page="1" pageScale="1" pageWidth="1100" pageHeight="850" math="0" shadow="0">
      <root>
        <mxCell id="0" />
        <mxCell id="1" parent="0" />
        <mxCell id="5xwIzjTkguHjPRyQFBAN-2" value="" style="rounded=0;whiteSpace=wrap;html=1;strokeColor=#9999FF;" parent="1" vertex="1">
          <mxGeometry x="542" y="-178" width="150" height="350" as="geometry" />
        </mxCell>
        <mxCell id="5xwIzjTkguHjPRyQFBAN-3" value="File Validator" style="rounded=0;whiteSpace=wrap;html=1;strokeColor=#b85450;labelBackgroundColor=none;rotation=-90;fillColor=#f8cecc;" parent="1" vertex="1">
          <mxGeometry x="461" y="-44.5" width="250" height="33" as="geometry" />
        </mxCell>
        <mxCell id="5xwIzjTkguHjPRyQFBAN-4" value="Event Generator" style="rounded=0;whiteSpace=wrap;html=1;strokeColor=#b85450;labelBackgroundColor=none;rotation=-90;fillColor=#f8cecc;" parent="1" vertex="1">
          <mxGeometry x="522" y="-43" width="250" height="30" as="geometry" />
        </mxCell>
        <mxCell id="5xwIzjTkguHjPRyQFBAN-5" value="Batch Framework" style="rounded=0;whiteSpace=wrap;html=1;strokeColor=#d79b00;labelBackgroundColor=none;rotation=0;fillColor=#ffe6cc;" parent="1" vertex="1">
          <mxGeometry x="542" y="112" width="150" height="30" as="geometry" />
        </mxCell>
        <mxCell id="5xwIzjTkguHjPRyQFBAN-6" value="Apache Spark" style="rounded=0;whiteSpace=wrap;html=1;strokeColor=#6c8ebf;labelBackgroundColor=none;rotation=0;fillColor=#dae8fc;" parent="1" vertex="1">
          <mxGeometry x="542" y="142" width="150" height="30" as="geometry" />
        </mxCell>
        <mxCell id="5xwIzjTkguHjPRyQFBAN-11" value="" style="outlineConnect=0;fontColor=#232F3E;gradientColor=none;fillColor=#5A30B5;strokeColor=none;dashed=0;verticalLabelPosition=bottom;verticalAlign=top;align=center;html=1;fontSize=12;fontStyle=0;aspect=fixed;pointerEvents=1;shape=mxgraph.aws4.search_documents;shadow=0;labelBackgroundColor=none;" parent="1" vertex="1">
          <mxGeometry x="424" y="-297" width="68" height="78" as="geometry" />
        </mxCell>
        <mxCell id="5xwIzjTkguHjPRyQFBAN-12" value="Input Data Mapper" style="rounded=0;whiteSpace=wrap;html=1;strokeColor=#b85450;labelBackgroundColor=none;rotation=-90;fillColor=#f8cecc;" parent="1" vertex="1">
          <mxGeometry x="492" y="-43" width="250" height="30" as="geometry" />
        </mxCell>
        <mxCell id="5xwIzjTkguHjPRyQFBAN-15" value="" style="rounded=0;whiteSpace=wrap;html=1;strokeColor=#9999FF;" parent="1" vertex="1">
          <mxGeometry x="794" y="-178" width="390" height="350" as="geometry" />
        </mxCell>
        <mxCell id="5xwIzjTkguHjPRyQFBAN-16" value="Auto Scaled Event Processor" style="text;html=1;strokeColor=none;fillColor=none;align=center;verticalAlign=middle;whiteSpace=wrap;rounded=0;shadow=0;labelBackgroundColor=none;fontColor=#4D4D4D;" parent="1" vertex="1">
          <mxGeometry x="794" y="132" width="390" height="40" as="geometry" />
        </mxCell>
        <mxCell id="5xwIzjTkguHjPRyQFBAN-21" value="" style="group" parent="1" vertex="1" connectable="0">
          <mxGeometry x="824" y="-167" width="150" height="170" as="geometry" />
        </mxCell>
        <mxCell id="5xwIzjTkguHjPRyQFBAN-17" value="Transaction Event Processor" style="points=[[0,0],[0.25,0],[0.5,0],[0.75,0],[1,0],[1,0.25],[1,0.5],[1,0.75],[1,1],[0.75,1],[0.5,1],[0.25,1],[0,1],[0,0.75],[0,0.5],[0,0.25]];outlineConnect=0;gradientColor=none;html=1;whiteSpace=wrap;fontSize=12;fontStyle=0;shape=mxgraph.aws4.group;grIcon=mxgraph.aws4.group_on_premise;strokeColor=#5A6C86;fillColor=none;verticalAlign=top;align=left;spacingLeft=30;fontColor=#5A6C86;dashed=0;shadow=0;labelBackgroundColor=none;" parent="5xwIzjTkguHjPRyQFBAN-21" vertex="1">
          <mxGeometry width="150" height="170" as="geometry" />
        </mxCell>
        <mxCell id="5xwIzjTkguHjPRyQFBAN-18" value="Streaming Framework" style="rounded=0;whiteSpace=wrap;html=1;strokeColor=#d79b00;labelBackgroundColor=none;rotation=0;fillColor=#ffe6cc;" parent="5xwIzjTkguHjPRyQFBAN-21" vertex="1">
          <mxGeometry y="80" width="150" height="30" as="geometry" />
        </mxCell>
        <mxCell id="5xwIzjTkguHjPRyQFBAN-19" value="Spring Boot" style="rounded=0;whiteSpace=wrap;html=1;strokeColor=#6c8ebf;labelBackgroundColor=none;rotation=0;fillColor=#dae8fc;" parent="5xwIzjTkguHjPRyQFBAN-21" vertex="1">
          <mxGeometry y="110" width="150" height="30" as="geometry" />
        </mxCell>
        <mxCell id="5xwIzjTkguHjPRyQFBAN-20" value="Docker" style="rounded=0;whiteSpace=wrap;html=1;strokeColor=#6c8ebf;labelBackgroundColor=none;rotation=0;fillColor=#dae8fc;" parent="5xwIzjTkguHjPRyQFBAN-21" vertex="1">
          <mxGeometry y="140" width="150" height="30" as="geometry" />
        </mxCell>
        <mxCell id="5xwIzjTkguHjPRyQFBAN-190" value="Transaction Process" style="rounded=0;whiteSpace=wrap;html=1;strokeColor=#b85450;labelBackgroundColor=none;rotation=0;fillColor=#f8cecc;" parent="5xwIzjTkguHjPRyQFBAN-21" vertex="1">
          <mxGeometry y="50" width="150" height="30" as="geometry" />
        </mxCell>
        <mxCell id="5xwIzjTkguHjPRyQFBAN-42" value="A" style="rounded=0;whiteSpace=wrap;html=1;strokeColor=#9999FF;" parent="1" vertex="1">
          <mxGeometry x="1332" y="-180" width="178" height="352" as="geometry" />
        </mxCell>
        <mxCell id="5xwIzjTkguHjPRyQFBAN-44" value="Respons Filee Mapper" style="rounded=0;whiteSpace=wrap;html=1;strokeColor=#b85450;labelBackgroundColor=none;rotation=-90;fillColor=#f8cecc;" parent="1" vertex="1">
          <mxGeometry x="1312" y="-43" width="250" height="30" as="geometry" />
        </mxCell>
        <mxCell id="5xwIzjTkguHjPRyQFBAN-45" value="Batch Framework" style="rounded=0;whiteSpace=wrap;html=1;strokeColor=#d79b00;labelBackgroundColor=none;rotation=0;fillColor=#ffe6cc;" parent="1" vertex="1">
          <mxGeometry x="1332" y="112" width="178" height="30" as="geometry" />
        </mxCell>
        <mxCell id="5xwIzjTkguHjPRyQFBAN-46" value="Apache Spark" style="rounded=0;whiteSpace=wrap;html=1;strokeColor=#6c8ebf;labelBackgroundColor=none;rotation=0;fillColor=#dae8fc;" parent="1" vertex="1">
          <mxGeometry x="1332" y="142" width="178" height="30" as="geometry" />
        </mxCell>
        <mxCell id="5xwIzjTkguHjPRyQFBAN-47" value="Reponse Accumulator" style="rounded=0;whiteSpace=wrap;html=1;strokeColor=#b85450;labelBackgroundColor=none;rotation=-90;fillColor=#f8cecc;" parent="1" vertex="1">
          <mxGeometry x="1252" y="-43" width="250" height="30" as="geometry" />
        </mxCell>
        <mxCell id="5xwIzjTkguHjPRyQFBAN-49" value="" style="edgeStyle=orthogonalEdgeStyle;html=1;endArrow=none;elbow=vertical;startArrow=block;startFill=1;strokeColor=#545B64;rounded=0;fontColor=#4D4D4D;" parent="1" source="5xwIzjTkguHjPRyQFBAN-2" target="5xwIzjTkguHjPRyQFBAN-10" edge="1">
          <mxGeometry width="100" relative="1" as="geometry">
            <mxPoint x="762" y="-268" as="sourcePoint" />
            <mxPoint x="1012" y="102" as="targetPoint" />
            <Array as="points">
              <mxPoint x="633" y="220" />
            </Array>
          </mxGeometry>
        </mxCell>
        <mxCell id="5xwIzjTkguHjPRyQFBAN-52" value="" style="points=[[0,0],[0.25,0],[0.5,0],[0.75,0],[1,0],[1,0.25],[1,0.5],[1,0.75],[1,1],[0.75,1],[0.5,1],[0.25,1],[0,1],[0,0.75],[0,0.5],[0,0.25]];outlineConnect=0;gradientColor=none;html=1;whiteSpace=wrap;fontSize=12;fontStyle=0;shape=mxgraph.aws4.group;grIcon=mxgraph.aws4.group_corporate_data_center;strokeColor=#5A6C86;fillColor=none;verticalAlign=top;align=left;spacingLeft=30;fontColor=#5A6C86;dashed=0;shadow=0;labelBackgroundColor=none;" parent="1" vertex="1">
          <mxGeometry x="1752" y="-780" width="130" height="700" as="geometry" />
        </mxCell>
        <mxCell id="5xwIzjTkguHjPRyQFBAN-54" value="Respons Database Mapper" style="rounded=0;whiteSpace=wrap;html=1;strokeColor=#b85450;labelBackgroundColor=none;rotation=-90;fillColor=#f8cecc;" parent="1" vertex="1">
          <mxGeometry x="1282" y="-43" width="250" height="30" as="geometry" />
        </mxCell>
        <mxCell id="5xwIzjTkguHjPRyQFBAN-57" value="" style="edgeStyle=orthogonalEdgeStyle;html=1;endArrow=none;elbow=vertical;startArrow=block;startFill=1;strokeColor=#545B64;rounded=0;fontColor=#4D4D4D;" parent="1" source="5xwIzjTkguHjPRyQFBAN-2" target="5xwIzjTkguHjPRyQFBAN-11" edge="1">
          <mxGeometry width="100" relative="1" as="geometry">
            <mxPoint x="627" y="-168" as="sourcePoint" />
            <mxPoint x="721" y="-290" as="targetPoint" />
            <Array as="points">
              <mxPoint x="521" y="-10" />
              <mxPoint x="521" y="-258" />
            </Array>
          </mxGeometry>
        </mxCell>
        <mxCell id="5xwIzjTkguHjPRyQFBAN-58" value="Draft5&lt;br&gt;Draft256&lt;br&gt;DraftA&lt;br&gt;..." style="text;html=1;strokeColor=none;fillColor=none;align=center;verticalAlign=middle;whiteSpace=wrap;rounded=0;shadow=0;labelBackgroundColor=none;fontColor=#4D4D4D;" parent="1" vertex="1">
          <mxGeometry x="428" y="-219" width="60" height="65" as="geometry" />
        </mxCell>
        <mxCell id="5xwIzjTkguHjPRyQFBAN-60" value="" style="outlineConnect=0;fontColor=#232F3E;gradientColor=#945DF2;gradientDirection=north;fillColor=none;strokeColor=#000000;dashed=0;verticalLabelPosition=bottom;verticalAlign=top;align=center;html=1;fontSize=12;fontStyle=0;aspect=fixed;shape=mxgraph.aws4.resourceIcon;resIcon=mxgraph.aws4.kinesis;shadow=0;labelBackgroundColor=none;rotation=-180;" parent="1" vertex="1">
          <mxGeometry x="702" y="-67" width="78" height="78" as="geometry" />
        </mxCell>
        <mxCell id="5xwIzjTkguHjPRyQFBAN-62" value="Incoming Messaging Queue" style="text;html=1;strokeColor=none;fillColor=none;align=center;verticalAlign=middle;whiteSpace=wrap;rounded=0;shadow=0;labelBackgroundColor=none;fontColor=#4D4D4D;" parent="1" vertex="1">
          <mxGeometry x="711" width="60" height="65" as="geometry" />
        </mxCell>
        <mxCell id="5xwIzjTkguHjPRyQFBAN-66" value="" style="outlineConnect=0;fontColor=#232F3E;gradientColor=none;fillColor=#3334B9;strokeColor=none;dashed=0;verticalLabelPosition=bottom;verticalAlign=top;align=center;html=1;fontSize=12;fontStyle=0;aspect=fixed;pointerEvents=1;shape=mxgraph.aws4.rds_oracle_instance;shadow=0;labelBackgroundColor=none;" parent="1" vertex="1">
          <mxGeometry x="1174" y="-360" width="78" height="78" as="geometry" />
        </mxCell>
        <mxCell id="5xwIzjTkguHjPRyQFBAN-67" value="" style="edgeStyle=orthogonalEdgeStyle;html=1;endArrow=none;elbow=vertical;startArrow=block;startFill=1;strokeColor=#545B64;rounded=0;fontColor=#4D4D4D;entryX=0.75;entryY=0;entryDx=0;entryDy=0;" parent="1" target="5xwIzjTkguHjPRyQFBAN-15" edge="1">
          <mxGeometry width="100" relative="1" as="geometry">
            <mxPoint x="1172" y="-300" as="sourcePoint" />
            <mxPoint x="1367" y="-168" as="targetPoint" />
            <Array as="points">
              <mxPoint x="1087" y="-300" />
            </Array>
          </mxGeometry>
        </mxCell>
        <mxCell id="5xwIzjTkguHjPRyQFBAN-69" value="" style="edgeStyle=orthogonalEdgeStyle;html=1;endArrow=none;elbow=vertical;startArrow=block;startFill=1;strokeColor=#545B64;rounded=0;fontColor=#4D4D4D;exitX=0;exitY=0.25;exitDx=0;exitDy=0;" parent="1" source="5xwIzjTkguHjPRyQFBAN-42" target="5xwIzjTkguHjPRyQFBAN-66" edge="1">
          <mxGeometry width="100" relative="1" as="geometry">
            <mxPoint x="1302" y="30" as="sourcePoint" />
            <mxPoint x="1194" y="-80.5" as="targetPoint" />
            <Array as="points">
              <mxPoint x="1300" y="-92" />
              <mxPoint x="1300" y="-300" />
            </Array>
          </mxGeometry>
        </mxCell>
        <mxCell id="5xwIzjTkguHjPRyQFBAN-72" value="" style="edgeStyle=orthogonalEdgeStyle;html=1;endArrow=none;elbow=vertical;startArrow=block;startFill=1;strokeColor=#545B64;rounded=0;fontColor=#4D4D4D;entryX=0.75;entryY=0;entryDx=0;entryDy=0;" parent="1" source="5xwIzjTkguHjPRyQFBAN-66" target="5xwIzjTkguHjPRyQFBAN-2" edge="1">
          <mxGeometry width="100" relative="1" as="geometry">
            <mxPoint x="627" y="-168" as="sourcePoint" />
            <mxPoint x="713.0000000000002" y="-252" as="targetPoint" />
            <Array as="points">
              <mxPoint x="655" y="-330" />
            </Array>
          </mxGeometry>
        </mxCell>
        <mxCell id="5xwIzjTkguHjPRyQFBAN-73" value="Batch File Data" style="text;html=1;strokeColor=none;fillColor=none;align=center;verticalAlign=middle;whiteSpace=wrap;rounded=0;shadow=0;labelBackgroundColor=none;fontColor=#4D4D4D;" parent="1" vertex="1">
          <mxGeometry x="663" y="-380" width="90" height="28" as="geometry" />
        </mxCell>
        <mxCell id="5xwIzjTkguHjPRyQFBAN-76" value="Transaction / Reject&lt;br&gt;Data" style="text;html=1;strokeColor=none;fillColor=none;align=center;verticalAlign=middle;whiteSpace=wrap;rounded=0;shadow=0;labelBackgroundColor=none;fontColor=#4D4D4D;" parent="1" vertex="1">
          <mxGeometry x="980" y="-261" width="90" height="50" as="geometry" />
        </mxCell>
        <mxCell id="5xwIzjTkguHjPRyQFBAN-77" value="Transaction and File Data" style="text;html=1;strokeColor=none;fillColor=none;align=center;verticalAlign=middle;whiteSpace=wrap;rounded=0;shadow=0;labelBackgroundColor=none;fontColor=#4D4D4D;" parent="1" vertex="1">
          <mxGeometry x="1210" y="-167" width="90" height="50" as="geometry" />
        </mxCell>
        <mxCell id="5xwIzjTkguHjPRyQFBAN-91" value="" style="edgeStyle=orthogonalEdgeStyle;html=1;endArrow=none;elbow=vertical;startArrow=block;startFill=1;strokeColor=#545B64;rounded=0;fontColor=#4D4D4D;" parent="1" source="5xwIzjTkguHjPRyQFBAN-78" target="5xwIzjTkguHjPRyQFBAN-87" edge="1">
          <mxGeometry width="100" relative="1" as="geometry">
            <mxPoint x="713.0000000000002" y="-390" as="sourcePoint" />
            <mxPoint x="713.0000000000002" y="-330" as="targetPoint" />
          </mxGeometry>
        </mxCell>
        <mxCell id="5xwIzjTkguHjPRyQFBAN-94" value="" style="edgeStyle=orthogonalEdgeStyle;html=1;endArrow=none;elbow=vertical;startArrow=block;startFill=1;strokeColor=#545B64;rounded=0;fontColor=#4D4D4D;" parent="1" source="5xwIzjTkguHjPRyQFBAN-48" edge="1">
          <mxGeometry width="100" relative="1" as="geometry">
            <mxPoint x="1342" y="-80.5" as="sourcePoint" />
            <mxPoint x="1510" y="-115" as="targetPoint" />
            <Array as="points">
              <mxPoint x="1510" y="-115" />
            </Array>
          </mxGeometry>
        </mxCell>
        <mxCell id="5xwIzjTkguHjPRyQFBAN-96" value="" style="group" parent="1" vertex="1" connectable="0">
          <mxGeometry x="1612" y="-154" width="68" height="100" as="geometry" />
        </mxCell>
        <mxCell id="5xwIzjTkguHjPRyQFBAN-48" value="" style="outlineConnect=0;fontColor=#232F3E;gradientColor=none;fillColor=#5A30B5;strokeColor=none;dashed=0;verticalLabelPosition=bottom;verticalAlign=top;align=center;html=1;fontSize=12;fontStyle=0;aspect=fixed;pointerEvents=1;shape=mxgraph.aws4.search_documents;shadow=0;labelBackgroundColor=none;" parent="5xwIzjTkguHjPRyQFBAN-96" vertex="1">
          <mxGeometry width="68" height="78" as="geometry" />
        </mxCell>
        <mxCell id="5xwIzjTkguHjPRyQFBAN-59" value="CTF" style="text;html=1;strokeColor=none;fillColor=none;align=center;verticalAlign=middle;whiteSpace=wrap;rounded=0;shadow=0;labelBackgroundColor=none;fontColor=#4D4D4D;" parent="5xwIzjTkguHjPRyQFBAN-96" vertex="1">
          <mxGeometry x="4" y="78" width="60" height="22" as="geometry" />
        </mxCell>
        <mxCell id="5xwIzjTkguHjPRyQFBAN-97" value="" style="edgeStyle=orthogonalEdgeStyle;html=1;endArrow=none;elbow=vertical;startArrow=block;startFill=1;strokeColor=#545B64;rounded=0;fontColor=#4D4D4D;" parent="1" source="5xwIzjTkguHjPRyQFBAN-52" target="5xwIzjTkguHjPRyQFBAN-48" edge="1">
          <mxGeometry width="100" relative="1" as="geometry">
            <mxPoint x="1532" y="10" as="sourcePoint" />
            <mxPoint x="1652" y="70" as="targetPoint" />
            <Array as="points">
              <mxPoint x="1710" y="-115" />
              <mxPoint x="1710" y="-115" />
            </Array>
          </mxGeometry>
        </mxCell>
        <mxCell id="5xwIzjTkguHjPRyQFBAN-98" value="" style="group" parent="1" vertex="1" connectable="0">
          <mxGeometry x="1552" y="-727.41" width="68" height="112.41" as="geometry" />
        </mxCell>
        <mxCell id="5xwIzjTkguHjPRyQFBAN-99" value="" style="outlineConnect=0;fontColor=#232F3E;gradientColor=none;fillColor=#5A30B5;strokeColor=none;dashed=0;verticalLabelPosition=bottom;verticalAlign=top;align=center;html=1;fontSize=12;fontStyle=0;aspect=fixed;pointerEvents=1;shape=mxgraph.aws4.search_documents;shadow=0;labelBackgroundColor=none;" parent="5xwIzjTkguHjPRyQFBAN-98" vertex="1">
          <mxGeometry width="68" height="78" as="geometry" />
        </mxCell>
        <mxCell id="5xwIzjTkguHjPRyQFBAN-100" value="TXA" style="text;html=1;strokeColor=none;fillColor=none;align=center;verticalAlign=middle;whiteSpace=wrap;rounded=0;shadow=0;labelBackgroundColor=none;fontColor=#4D4D4D;" parent="5xwIzjTkguHjPRyQFBAN-98" vertex="1">
          <mxGeometry x="4" y="78" width="60" height="22" as="geometry" />
        </mxCell>
        <mxCell id="5xwIzjTkguHjPRyQFBAN-101" value="" style="group" parent="1" vertex="1" connectable="0">
          <mxGeometry x="1560" y="-600" width="68" height="100" as="geometry" />
        </mxCell>
        <mxCell id="5xwIzjTkguHjPRyQFBAN-102" value="" style="outlineConnect=0;fontColor=#232F3E;gradientColor=none;fillColor=#5A30B5;strokeColor=none;dashed=0;verticalLabelPosition=bottom;verticalAlign=top;align=center;html=1;fontSize=12;fontStyle=0;aspect=fixed;pointerEvents=1;shape=mxgraph.aws4.search_documents;shadow=0;labelBackgroundColor=none;" parent="5xwIzjTkguHjPRyQFBAN-101" vertex="1">
          <mxGeometry width="68" height="78" as="geometry" />
        </mxCell>
        <mxCell id="5xwIzjTkguHjPRyQFBAN-103" value="CTP" style="text;html=1;strokeColor=none;fillColor=none;align=center;verticalAlign=middle;whiteSpace=wrap;rounded=0;shadow=0;labelBackgroundColor=none;fontColor=#4D4D4D;" parent="5xwIzjTkguHjPRyQFBAN-101" vertex="1">
          <mxGeometry x="4" y="78" width="60" height="22" as="geometry" />
        </mxCell>
        <mxCell id="5xwIzjTkguHjPRyQFBAN-106" value="" style="edgeStyle=orthogonalEdgeStyle;html=1;endArrow=none;elbow=vertical;startArrow=block;startFill=1;strokeColor=#545B64;rounded=0;fontColor=#4D4D4D;" parent="1" source="5xwIzjTkguHjPRyQFBAN-99" edge="1">
          <mxGeometry width="100" relative="1" as="geometry">
            <mxPoint x="1640" y="-225.9411764705883" as="sourcePoint" />
            <mxPoint x="1750" y="-688" as="targetPoint" />
            <Array as="points">
              <mxPoint x="1760" y="-688" />
            </Array>
          </mxGeometry>
        </mxCell>
        <mxCell id="5xwIzjTkguHjPRyQFBAN-107" value="" style="edgeStyle=orthogonalEdgeStyle;html=1;endArrow=none;elbow=vertical;startArrow=block;startFill=1;strokeColor=#545B64;rounded=0;fontColor=#4D4D4D;" parent="1" source="5xwIzjTkguHjPRyQFBAN-102" edge="1">
          <mxGeometry width="100" relative="1" as="geometry">
            <mxPoint x="1598" y="-481.94117647058806" as="sourcePoint" />
            <mxPoint x="1760" y="-571" as="targetPoint" />
            <Array as="points">
              <mxPoint x="1630" y="-571" />
              <mxPoint x="1630" y="-571" />
            </Array>
          </mxGeometry>
        </mxCell>
        <mxCell id="5xwIzjTkguHjPRyQFBAN-108" value="" style="rounded=0;whiteSpace=wrap;html=1;strokeColor=#9999FF;" parent="1" vertex="1">
          <mxGeometry x="1332" y="-750" width="150" height="350" as="geometry" />
        </mxCell>
        <mxCell id="5xwIzjTkguHjPRyQFBAN-109" value="Respons Filee Mapper" style="rounded=0;whiteSpace=wrap;html=1;strokeColor=#b85450;labelBackgroundColor=none;rotation=-90;fillColor=#f8cecc;" parent="1" vertex="1">
          <mxGeometry x="1312" y="-615" width="250" height="30" as="geometry" />
        </mxCell>
        <mxCell id="5xwIzjTkguHjPRyQFBAN-110" value="Batch Framework" style="rounded=0;whiteSpace=wrap;html=1;strokeColor=#d79b00;labelBackgroundColor=none;rotation=0;fillColor=#ffe6cc;" parent="1" vertex="1">
          <mxGeometry x="1332" y="-460" width="150" height="30" as="geometry" />
        </mxCell>
        <mxCell id="5xwIzjTkguHjPRyQFBAN-111" value="Apache Spark" style="rounded=0;whiteSpace=wrap;html=1;strokeColor=#6c8ebf;labelBackgroundColor=none;rotation=0;fillColor=#dae8fc;" parent="1" vertex="1">
          <mxGeometry x="1332" y="-430" width="150" height="30" as="geometry" />
        </mxCell>
        <mxCell id="5xwIzjTkguHjPRyQFBAN-112" value="NP Tran Rejects" style="rounded=0;whiteSpace=wrap;html=1;strokeColor=#b85450;labelBackgroundColor=none;rotation=-90;fillColor=#f8cecc;" parent="1" vertex="1">
          <mxGeometry x="1252" y="-615" width="250" height="30" as="geometry" />
        </mxCell>
        <mxCell id="5xwIzjTkguHjPRyQFBAN-113" value="Totals Processor" style="rounded=0;whiteSpace=wrap;html=1;strokeColor=#b85450;labelBackgroundColor=none;rotation=-90;fillColor=#f8cecc;" parent="1" vertex="1">
          <mxGeometry x="1282" y="-615" width="250" height="30" as="geometry" />
        </mxCell>
        <mxCell id="5xwIzjTkguHjPRyQFBAN-115" value="" style="edgeStyle=orthogonalEdgeStyle;rounded=0;orthogonalLoop=1;jettySize=auto;html=1;fontColor=#4D4D4D;entryX=1;entryY=0.5;entryDx=0;entryDy=0;" parent="1" source="5xwIzjTkguHjPRyQFBAN-102" target="5xwIzjTkguHjPRyQFBAN-108" edge="1">
          <mxGeometry relative="1" as="geometry">
            <Array as="points">
              <mxPoint x="1510" y="-571" />
              <mxPoint x="1510" y="-575" />
            </Array>
            <mxPoint x="1554" y="-470" as="targetPoint" />
          </mxGeometry>
        </mxCell>
        <mxCell id="5xwIzjTkguHjPRyQFBAN-119" value="" style="edgeStyle=orthogonalEdgeStyle;rounded=0;orthogonalLoop=1;jettySize=auto;html=1;fontColor=#4D4D4D;" parent="1" source="5xwIzjTkguHjPRyQFBAN-99" target="5xwIzjTkguHjPRyQFBAN-108" edge="1">
          <mxGeometry relative="1" as="geometry">
            <mxPoint x="1462" y="-533.8235294117646" as="targetPoint" />
            <Array as="points">
              <mxPoint x="1510" y="-680" />
              <mxPoint x="1510" y="-680" />
            </Array>
          </mxGeometry>
        </mxCell>
        <mxCell id="5xwIzjTkguHjPRyQFBAN-120" value="" style="group" parent="1" vertex="1" connectable="0">
          <mxGeometry x="804" y="-750" width="84" height="350" as="geometry" />
        </mxCell>
        <mxCell id="5xwIzjTkguHjPRyQFBAN-121" value="" style="rounded=0;whiteSpace=wrap;html=1;strokeColor=#9999FF;" parent="5xwIzjTkguHjPRyQFBAN-120" vertex="1">
          <mxGeometry width="84" height="350" as="geometry" />
        </mxCell>
        <mxCell id="5xwIzjTkguHjPRyQFBAN-122" value="G5" style="rounded=0;whiteSpace=wrap;html=1;strokeColor=#6c8ebf;labelBackgroundColor=none;rotation=0;fillColor=#dae8fc;" parent="5xwIzjTkguHjPRyQFBAN-120" vertex="1">
          <mxGeometry y="290" width="84" height="30" as="geometry" />
        </mxCell>
        <mxCell id="5xwIzjTkguHjPRyQFBAN-123" value="Kubernetes" style="rounded=0;whiteSpace=wrap;html=1;strokeColor=#6c8ebf;labelBackgroundColor=none;rotation=0;fillColor=#dae8fc;" parent="5xwIzjTkguHjPRyQFBAN-120" vertex="1">
          <mxGeometry y="320" width="84" height="30" as="geometry" />
        </mxCell>
        <mxCell id="5xwIzjTkguHjPRyQFBAN-124" value="Customer Service APIs (WCSA, MRA, MDE)" style="rounded=0;whiteSpace=wrap;html=1;strokeColor=#b85450;labelBackgroundColor=none;rotation=-90;fillColor=#f8cecc;" parent="5xwIzjTkguHjPRyQFBAN-120" vertex="1">
          <mxGeometry x="-86" y="130" width="250" height="30" as="geometry" />
        </mxCell>
        <mxCell id="5xwIzjTkguHjPRyQFBAN-127" value="" style="group" parent="1" vertex="1" connectable="0">
          <mxGeometry x="666" y="-750" width="84" height="350" as="geometry" />
        </mxCell>
        <mxCell id="5xwIzjTkguHjPRyQFBAN-128" value="" style="rounded=0;whiteSpace=wrap;html=1;strokeColor=#9999FF;" parent="5xwIzjTkguHjPRyQFBAN-127" vertex="1">
          <mxGeometry width="84" height="350" as="geometry" />
        </mxCell>
        <mxCell id="5xwIzjTkguHjPRyQFBAN-129" value="TCS" style="rounded=0;whiteSpace=wrap;html=1;strokeColor=#6c8ebf;labelBackgroundColor=none;rotation=0;fillColor=#dae8fc;" parent="5xwIzjTkguHjPRyQFBAN-127" vertex="1">
          <mxGeometry y="320" width="84" height="30" as="geometry" />
        </mxCell>
        <mxCell id="5xwIzjTkguHjPRyQFBAN-130" value="Customer Service UI" style="rounded=0;whiteSpace=wrap;html=1;strokeColor=#d6b656;labelBackgroundColor=none;rotation=-90;fillColor=#fff2cc;" parent="5xwIzjTkguHjPRyQFBAN-127" vertex="1">
          <mxGeometry x="-86" y="130" width="250" height="30" as="geometry" />
        </mxCell>
        <mxCell id="5xwIzjTkguHjPRyQFBAN-131" value="" style="edgeStyle=orthogonalEdgeStyle;html=1;endArrow=none;elbow=vertical;startArrow=block;startFill=1;strokeColor=#545B64;rounded=0;fontColor=#4D4D4D;" parent="1" source="5xwIzjTkguHjPRyQFBAN-121" target="5xwIzjTkguHjPRyQFBAN-128" edge="1">
          <mxGeometry width="100" relative="1" as="geometry">
            <mxPoint x="837" y="-760" as="sourcePoint" />
            <mxPoint x="568.0000000000002" y="-330" as="targetPoint" />
            <Array as="points">
              <mxPoint x="797" y="-615" />
              <mxPoint x="797" y="-615" />
            </Array>
          </mxGeometry>
        </mxCell>
        <mxCell id="5xwIzjTkguHjPRyQFBAN-132" value="" style="edgeStyle=orthogonalEdgeStyle;html=1;endArrow=none;elbow=vertical;startArrow=block;startFill=1;strokeColor=#545B64;rounded=0;fontColor=#4D4D4D;" parent="1" source="5xwIzjTkguHjPRyQFBAN-66" target="5xwIzjTkguHjPRyQFBAN-121" edge="1">
          <mxGeometry width="100" relative="1" as="geometry">
            <mxPoint x="962" y="-565" as="sourcePoint" />
            <mxPoint x="926" y="-565" as="targetPoint" />
            <Array as="points">
              <mxPoint x="1012" y="-350" />
              <mxPoint x="1012" y="-460" />
            </Array>
          </mxGeometry>
        </mxCell>
        <mxCell id="5xwIzjTkguHjPRyQFBAN-133" value="" style="outlineConnect=0;fontColor=#232F3E;gradientColor=none;fillColor=#5A30B5;strokeColor=none;dashed=0;verticalLabelPosition=bottom;verticalAlign=top;align=center;html=1;fontSize=12;fontStyle=0;aspect=fixed;pointerEvents=1;shape=mxgraph.aws4.search_documents;shadow=0;labelBackgroundColor=none;" parent="1" vertex="1">
          <mxGeometry x="424" y="-158" width="68" height="78" as="geometry" />
        </mxCell>
        <mxCell id="5xwIzjTkguHjPRyQFBAN-134" value="Visa&lt;br&gt;Inconing" style="text;html=1;strokeColor=none;fillColor=none;align=center;verticalAlign=middle;whiteSpace=wrap;rounded=0;shadow=0;labelBackgroundColor=none;fontColor=#4D4D4D;" parent="1" vertex="1">
          <mxGeometry x="428" y="-80" width="60" height="41" as="geometry" />
        </mxCell>
        <mxCell id="5xwIzjTkguHjPRyQFBAN-137" value="" style="outlineConnect=0;fontColor=#232F3E;gradientColor=none;fillColor=#5A30B5;strokeColor=none;dashed=0;verticalLabelPosition=bottom;verticalAlign=top;align=center;html=1;fontSize=12;fontStyle=0;aspect=fixed;pointerEvents=1;shape=mxgraph.aws4.search_documents;shadow=0;labelBackgroundColor=none;" parent="1" vertex="1">
          <mxGeometry x="424" y="-15" width="68" height="78" as="geometry" />
        </mxCell>
        <mxCell id="5xwIzjTkguHjPRyQFBAN-138" value="MC Incoming" style="text;html=1;strokeColor=none;fillColor=none;align=center;verticalAlign=middle;whiteSpace=wrap;rounded=0;shadow=0;labelBackgroundColor=none;fontColor=#4D4D4D;" parent="1" vertex="1">
          <mxGeometry x="428" y="63" width="60" height="38" as="geometry" />
        </mxCell>
        <mxCell id="5xwIzjTkguHjPRyQFBAN-139" value="" style="outlineConnect=0;fontColor=#232F3E;gradientColor=none;fillColor=#5A30B5;strokeColor=none;dashed=0;verticalLabelPosition=bottom;verticalAlign=top;align=center;html=1;fontSize=12;fontStyle=0;aspect=fixed;pointerEvents=1;shape=mxgraph.aws4.search_documents;shadow=0;labelBackgroundColor=none;" parent="1" vertex="1">
          <mxGeometry x="424" y="111" width="68" height="78" as="geometry" />
        </mxCell>
        <mxCell id="5xwIzjTkguHjPRyQFBAN-140" value="AEGNS (Amex) Incoming" style="text;html=1;strokeColor=none;fillColor=none;align=center;verticalAlign=middle;whiteSpace=wrap;rounded=0;shadow=0;labelBackgroundColor=none;fontColor=#4D4D4D;" parent="1" vertex="1">
          <mxGeometry x="428" y="189" width="60" height="52" as="geometry" />
        </mxCell>
        <mxCell id="5xwIzjTkguHjPRyQFBAN-141" value="" style="edgeStyle=orthogonalEdgeStyle;html=1;endArrow=none;elbow=vertical;startArrow=block;startFill=1;strokeColor=#545B64;rounded=0;fontColor=#4D4D4D;" parent="1" source="5xwIzjTkguHjPRyQFBAN-2" target="5xwIzjTkguHjPRyQFBAN-133" edge="1">
          <mxGeometry width="100" relative="1" as="geometry">
            <mxPoint x="552" y="-80.5" as="sourcePoint" />
            <mxPoint x="510" y="-129" as="targetPoint" />
            <Array as="points">
              <mxPoint x="502" />
              <mxPoint x="502" y="-119" />
            </Array>
          </mxGeometry>
        </mxCell>
        <mxCell id="5xwIzjTkguHjPRyQFBAN-142" value="" style="edgeStyle=orthogonalEdgeStyle;html=1;endArrow=none;elbow=vertical;startArrow=block;startFill=1;strokeColor=#545B64;rounded=0;fontColor=#4D4D4D;" parent="1" source="5xwIzjTkguHjPRyQFBAN-2" target="5xwIzjTkguHjPRyQFBAN-137" edge="1">
          <mxGeometry width="100" relative="1" as="geometry">
            <mxPoint x="552" y="10.000000000000455" as="sourcePoint" />
            <mxPoint x="509.9999999999999" y="10.000000000000455" as="targetPoint" />
            <Array as="points">
              <mxPoint x="502" y="10" />
              <mxPoint x="502" y="24" />
            </Array>
          </mxGeometry>
        </mxCell>
        <mxCell id="5xwIzjTkguHjPRyQFBAN-143" value="" style="edgeStyle=orthogonalEdgeStyle;html=1;endArrow=none;elbow=vertical;startArrow=block;startFill=1;strokeColor=#545B64;rounded=0;fontColor=#4D4D4D;" parent="1" source="5xwIzjTkguHjPRyQFBAN-2" target="5xwIzjTkguHjPRyQFBAN-139" edge="1">
          <mxGeometry width="100" relative="1" as="geometry">
            <mxPoint x="552" y="20.000000000000455" as="sourcePoint" />
            <mxPoint x="509.9999999999999" y="153" as="targetPoint" />
            <Array as="points">
              <mxPoint x="522" y="20" />
              <mxPoint x="522" y="150" />
            </Array>
          </mxGeometry>
        </mxCell>
        <mxCell id="5xwIzjTkguHjPRyQFBAN-145" value="" style="group" parent="1" vertex="1" connectable="0">
          <mxGeometry x="802" y="320" width="84" height="350" as="geometry" />
        </mxCell>
        <mxCell id="5xwIzjTkguHjPRyQFBAN-146" value="" style="rounded=0;whiteSpace=wrap;html=1;strokeColor=#9999FF;" parent="5xwIzjTkguHjPRyQFBAN-145" vertex="1">
          <mxGeometry width="84" height="350" as="geometry" />
        </mxCell>
        <mxCell id="5xwIzjTkguHjPRyQFBAN-147" value="G5" style="rounded=0;whiteSpace=wrap;html=1;strokeColor=#6c8ebf;labelBackgroundColor=none;rotation=0;fillColor=#dae8fc;" parent="5xwIzjTkguHjPRyQFBAN-145" vertex="1">
          <mxGeometry y="290" width="84" height="30" as="geometry" />
        </mxCell>
        <mxCell id="5xwIzjTkguHjPRyQFBAN-148" value="Kubernetes" style="rounded=0;whiteSpace=wrap;html=1;strokeColor=#6c8ebf;labelBackgroundColor=none;rotation=0;fillColor=#dae8fc;" parent="5xwIzjTkguHjPRyQFBAN-145" vertex="1">
          <mxGeometry y="320" width="84" height="30" as="geometry" />
        </mxCell>
        <mxCell id="5xwIzjTkguHjPRyQFBAN-149" value="Paymen FCS Provider API" style="rounded=0;whiteSpace=wrap;html=1;strokeColor=#b85450;labelBackgroundColor=none;rotation=-90;fillColor=#f8cecc;" parent="5xwIzjTkguHjPRyQFBAN-145" vertex="1">
          <mxGeometry x="-86" y="130" width="250" height="30" as="geometry" />
        </mxCell>
        <mxCell id="5xwIzjTkguHjPRyQFBAN-150" value="" style="group" parent="1" vertex="1" connectable="0">
          <mxGeometry x="416" y="320" width="84" height="350" as="geometry" />
        </mxCell>
        <mxCell id="5xwIzjTkguHjPRyQFBAN-86" value="" style="group" parent="5xwIzjTkguHjPRyQFBAN-150" vertex="1" connectable="0">
          <mxGeometry width="84" height="350" as="geometry" />
        </mxCell>
        <mxCell id="5xwIzjTkguHjPRyQFBAN-87" value="" style="rounded=0;whiteSpace=wrap;html=1;strokeColor=#9999FF;" parent="5xwIzjTkguHjPRyQFBAN-86" vertex="1">
          <mxGeometry width="84" height="350" as="geometry" />
        </mxCell>
        <mxCell id="5xwIzjTkguHjPRyQFBAN-89" value="Digital Admin" style="rounded=0;whiteSpace=wrap;html=1;strokeColor=#6c8ebf;labelBackgroundColor=none;rotation=0;fillColor=#dae8fc;" parent="5xwIzjTkguHjPRyQFBAN-86" vertex="1">
          <mxGeometry y="320" width="84" height="30" as="geometry" />
        </mxCell>
        <mxCell id="5xwIzjTkguHjPRyQFBAN-90" value="Admin UI" style="rounded=0;whiteSpace=wrap;html=1;strokeColor=#d6b656;labelBackgroundColor=none;rotation=-90;fillColor=#fff2cc;" parent="5xwIzjTkguHjPRyQFBAN-86" vertex="1">
          <mxGeometry x="-86" y="130" width="250" height="30" as="geometry" />
        </mxCell>
        <mxCell id="5xwIzjTkguHjPRyQFBAN-151" value="" style="group" parent="1" vertex="1" connectable="0">
          <mxGeometry x="542" y="320" width="84" height="350" as="geometry" />
        </mxCell>
        <mxCell id="5xwIzjTkguHjPRyQFBAN-85" value="" style="group" parent="5xwIzjTkguHjPRyQFBAN-151" vertex="1" connectable="0">
          <mxGeometry width="84" height="350" as="geometry" />
        </mxCell>
        <mxCell id="5xwIzjTkguHjPRyQFBAN-78" value="" style="rounded=0;whiteSpace=wrap;html=1;strokeColor=#9999FF;" parent="5xwIzjTkguHjPRyQFBAN-85" vertex="1">
          <mxGeometry width="84" height="350" as="geometry" />
        </mxCell>
        <mxCell id="5xwIzjTkguHjPRyQFBAN-79" value="G5" style="rounded=0;whiteSpace=wrap;html=1;strokeColor=#6c8ebf;labelBackgroundColor=none;rotation=0;fillColor=#dae8fc;" parent="5xwIzjTkguHjPRyQFBAN-85" vertex="1">
          <mxGeometry y="290" width="84" height="30" as="geometry" />
        </mxCell>
        <mxCell id="5xwIzjTkguHjPRyQFBAN-80" value="Kubernetes" style="rounded=0;whiteSpace=wrap;html=1;strokeColor=#6c8ebf;labelBackgroundColor=none;rotation=0;fillColor=#dae8fc;" parent="5xwIzjTkguHjPRyQFBAN-85" vertex="1">
          <mxGeometry y="320" width="84" height="30" as="geometry" />
        </mxCell>
        <mxCell id="5xwIzjTkguHjPRyQFBAN-81" value="Admin Service Catalog API" style="rounded=0;whiteSpace=wrap;html=1;strokeColor=#b85450;labelBackgroundColor=none;rotation=-90;fillColor=#f8cecc;" parent="5xwIzjTkguHjPRyQFBAN-85" vertex="1">
          <mxGeometry x="-86" y="130" width="250" height="30" as="geometry" />
        </mxCell>
        <mxCell id="5xwIzjTkguHjPRyQFBAN-152" value="" style="edgeStyle=orthogonalEdgeStyle;html=1;endArrow=none;elbow=vertical;startArrow=block;startFill=1;strokeColor=#545B64;rounded=0;fontColor=#4D4D4D;" parent="1" source="5xwIzjTkguHjPRyQFBAN-146" target="5xwIzjTkguHjPRyQFBAN-10" edge="1">
          <mxGeometry width="100" relative="1" as="geometry">
            <mxPoint x="619" y="-560" as="sourcePoint" />
            <mxPoint x="713.0000000000002" y="-330" as="targetPoint" />
            <Array as="points">
              <mxPoint x="732" y="380" />
            </Array>
          </mxGeometry>
        </mxCell>
        <mxCell id="5xwIzjTkguHjPRyQFBAN-154" value="" style="outlineConnect=0;fontColor=#232F3E;gradientColor=#945DF2;gradientDirection=north;fillColor=none;strokeColor=#000000;dashed=0;verticalLabelPosition=bottom;verticalAlign=top;align=center;html=1;fontSize=12;fontStyle=0;aspect=fixed;shape=mxgraph.aws4.resourceIcon;resIcon=mxgraph.aws4.kinesis;shadow=0;labelBackgroundColor=none;rotation=90;" parent="1" vertex="1">
          <mxGeometry x="802" y="189" width="78" height="78" as="geometry" />
        </mxCell>
        <mxCell id="5xwIzjTkguHjPRyQFBAN-155" value="Incoming Messaging Queue" style="text;html=1;strokeColor=none;fillColor=none;align=center;verticalAlign=middle;whiteSpace=wrap;rounded=0;shadow=0;labelBackgroundColor=none;fontColor=#4D4D4D;" parent="1" vertex="1">
          <mxGeometry x="811" y="260" width="60" height="65" as="geometry" />
        </mxCell>
        <mxCell id="5xwIzjTkguHjPRyQFBAN-158" value="" style="edgeStyle=orthogonalEdgeStyle;html=1;endArrow=none;elbow=vertical;startArrow=block;startFill=1;strokeColor=#545B64;rounded=0;fontColor=#4D4D4D;" parent="1" source="5xwIzjTkguHjPRyQFBAN-66" target="5xwIzjTkguHjPRyQFBAN-108" edge="1">
          <mxGeometry width="100" relative="1" as="geometry">
            <mxPoint x="1172" y="-341" as="sourcePoint" />
            <mxPoint x="1022.0588235294117" y="-430" as="targetPoint" />
            <Array as="points">
              <mxPoint x="1220" y="-575" />
            </Array>
          </mxGeometry>
        </mxCell>
        <mxCell id="5xwIzjTkguHjPRyQFBAN-10" value="" style="outlineConnect=0;fontColor=#232F3E;gradientColor=none;fillColor=#3334B9;strokeColor=none;dashed=0;verticalLabelPosition=bottom;verticalAlign=top;align=center;html=1;fontSize=12;fontStyle=0;aspect=fixed;pointerEvents=1;shape=mxgraph.aws4.rds_oracle_instance;shadow=0;labelBackgroundColor=none;" parent="1" vertex="1">
          <mxGeometry x="672" y="202" width="78" height="78" as="geometry" />
        </mxCell>
        <mxCell id="5xwIzjTkguHjPRyQFBAN-70" value="Configuration Maintenance" style="text;html=1;strokeColor=none;fillColor=none;align=center;verticalAlign=middle;whiteSpace=wrap;rounded=0;shadow=0;labelBackgroundColor=none;fontColor=#4D4D4D;" parent="1" vertex="1">
          <mxGeometry x="512" y="280" width="90" height="40" as="geometry" />
        </mxCell>
        <mxCell id="5xwIzjTkguHjPRyQFBAN-159" value="Configuration&lt;br&gt;Lookup" style="text;html=1;strokeColor=none;fillColor=none;align=center;verticalAlign=middle;whiteSpace=wrap;rounded=0;shadow=0;labelBackgroundColor=none;fontColor=#4D4D4D;" parent="1" vertex="1">
          <mxGeometry x="712" y="380" width="90" height="40" as="geometry" />
        </mxCell>
        <mxCell id="5xwIzjTkguHjPRyQFBAN-160" value="Configuration&lt;br&gt;Lookup" style="text;html=1;strokeColor=none;fillColor=none;align=center;verticalAlign=middle;whiteSpace=wrap;rounded=0;shadow=0;labelBackgroundColor=none;fontColor=#4D4D4D;" parent="1" vertex="1">
          <mxGeometry x="542" y="180" width="90" height="40" as="geometry" />
        </mxCell>
        <mxCell id="5xwIzjTkguHjPRyQFBAN-84" value="" style="edgeStyle=orthogonalEdgeStyle;html=1;endArrow=none;elbow=vertical;startArrow=block;startFill=1;strokeColor=#545B64;rounded=0;fontColor=#4D4D4D;" parent="1" source="5xwIzjTkguHjPRyQFBAN-10" target="5xwIzjTkguHjPRyQFBAN-78" edge="1">
          <mxGeometry width="100" relative="1" as="geometry">
            <mxPoint x="632" y="280" as="sourcePoint" />
            <mxPoint x="713.0000000000002" y="-252" as="targetPoint" />
            <Array as="points">
              <mxPoint x="602" y="280" />
            </Array>
          </mxGeometry>
        </mxCell>
        <mxCell id="5xwIzjTkguHjPRyQFBAN-165" value="" style="rounded=0;whiteSpace=wrap;html=1;strokeColor=#9999FF;" parent="1" vertex="1">
          <mxGeometry x="1362" y="260" width="390" height="350" as="geometry" />
        </mxCell>
        <mxCell id="5xwIzjTkguHjPRyQFBAN-166" value="Auto Scaled Event Processor" style="text;html=1;strokeColor=none;fillColor=none;align=center;verticalAlign=middle;whiteSpace=wrap;rounded=0;shadow=0;labelBackgroundColor=none;fontColor=#4D4D4D;" parent="1" vertex="1">
          <mxGeometry x="1362" y="570" width="390" height="40" as="geometry" />
        </mxCell>
        <mxCell id="5xwIzjTkguHjPRyQFBAN-187" value="" style="outlineConnect=0;fontColor=#232F3E;gradientColor=#945DF2;gradientDirection=north;fillColor=none;strokeColor=#000000;dashed=0;verticalLabelPosition=bottom;verticalAlign=top;align=center;html=1;fontSize=12;fontStyle=0;aspect=fixed;shape=mxgraph.aws4.resourceIcon;resIcon=mxgraph.aws4.kinesis;shadow=0;labelBackgroundColor=none;rotation=-90;" parent="1" vertex="1">
          <mxGeometry x="1648" y="177" width="78" height="78" as="geometry" />
        </mxCell>
        <mxCell id="5xwIzjTkguHjPRyQFBAN-188" value="CDC Message Queue" style="text;html=1;strokeColor=none;fillColor=none;align=center;verticalAlign=middle;whiteSpace=wrap;rounded=0;shadow=0;labelBackgroundColor=none;fontColor=#4D4D4D;" parent="1" vertex="1">
          <mxGeometry x="1722" y="183.5" width="60" height="65" as="geometry" />
        </mxCell>
        <mxCell id="5xwIzjTkguHjPRyQFBAN-189" value="" style="edgeStyle=orthogonalEdgeStyle;html=1;endArrow=none;elbow=vertical;startArrow=block;startFill=1;strokeColor=#545B64;rounded=0;fontColor=#4D4D4D;" parent="1" source="5xwIzjTkguHjPRyQFBAN-10" target="5xwIzjTkguHjPRyQFBAN-165" edge="1">
          <mxGeometry width="100" relative="1" as="geometry">
            <mxPoint x="692" y="340" as="sourcePoint" />
            <mxPoint x="742.0588235294117" y="290.00000000000045" as="targetPoint" />
            <Array as="points">
              <mxPoint x="711" y="720" />
              <mxPoint x="1557" y="720" />
            </Array>
          </mxGeometry>
        </mxCell>
        <mxCell id="5xwIzjTkguHjPRyQFBAN-191" value="" style="group" parent="1" vertex="1" connectable="0">
          <mxGeometry x="1012" y="-170" width="150" height="170" as="geometry" />
        </mxCell>
        <mxCell id="5xwIzjTkguHjPRyQFBAN-192" value="Transaction Event Processor" style="points=[[0,0],[0.25,0],[0.5,0],[0.75,0],[1,0],[1,0.25],[1,0.5],[1,0.75],[1,1],[0.75,1],[0.5,1],[0.25,1],[0,1],[0,0.75],[0,0.5],[0,0.25]];outlineConnect=0;gradientColor=none;html=1;whiteSpace=wrap;fontSize=12;fontStyle=0;shape=mxgraph.aws4.group;grIcon=mxgraph.aws4.group_on_premise;strokeColor=#5A6C86;fillColor=none;verticalAlign=top;align=left;spacingLeft=30;fontColor=#5A6C86;dashed=0;shadow=0;labelBackgroundColor=none;" parent="5xwIzjTkguHjPRyQFBAN-191" vertex="1">
          <mxGeometry width="150" height="170" as="geometry" />
        </mxCell>
        <mxCell id="5xwIzjTkguHjPRyQFBAN-193" value="Streaming Framework" style="rounded=0;whiteSpace=wrap;html=1;strokeColor=#d79b00;labelBackgroundColor=none;rotation=0;fillColor=#ffe6cc;" parent="5xwIzjTkguHjPRyQFBAN-191" vertex="1">
          <mxGeometry y="80" width="150" height="30" as="geometry" />
        </mxCell>
        <mxCell id="5xwIzjTkguHjPRyQFBAN-194" value="Spring Boot" style="rounded=0;whiteSpace=wrap;html=1;strokeColor=#6c8ebf;labelBackgroundColor=none;rotation=0;fillColor=#dae8fc;" parent="5xwIzjTkguHjPRyQFBAN-191" vertex="1">
          <mxGeometry y="110" width="150" height="30" as="geometry" />
        </mxCell>
        <mxCell id="5xwIzjTkguHjPRyQFBAN-195" value="Docker" style="rounded=0;whiteSpace=wrap;html=1;strokeColor=#6c8ebf;labelBackgroundColor=none;rotation=0;fillColor=#dae8fc;" parent="5xwIzjTkguHjPRyQFBAN-191" vertex="1">
          <mxGeometry y="140" width="150" height="30" as="geometry" />
        </mxCell>
        <mxCell id="5xwIzjTkguHjPRyQFBAN-196" value="Transaction Process" style="rounded=0;whiteSpace=wrap;html=1;strokeColor=#b85450;labelBackgroundColor=none;rotation=0;fillColor=#f8cecc;" parent="5xwIzjTkguHjPRyQFBAN-191" vertex="1">
          <mxGeometry y="50" width="150" height="30" as="geometry" />
        </mxCell>
        <mxCell id="5xwIzjTkguHjPRyQFBAN-197" value="" style="group" parent="1" vertex="1" connectable="0">
          <mxGeometry x="1382" y="280" width="150" height="170" as="geometry" />
        </mxCell>
        <mxCell id="5xwIzjTkguHjPRyQFBAN-198" value="CDC Event &lt;br&gt;Processor" style="points=[[0,0],[0.25,0],[0.5,0],[0.75,0],[1,0],[1,0.25],[1,0.5],[1,0.75],[1,1],[0.75,1],[0.5,1],[0.25,1],[0,1],[0,0.75],[0,0.5],[0,0.25]];outlineConnect=0;gradientColor=none;html=1;whiteSpace=wrap;fontSize=12;fontStyle=0;shape=mxgraph.aws4.group;grIcon=mxgraph.aws4.group_on_premise;strokeColor=#5A6C86;fillColor=none;verticalAlign=top;align=left;spacingLeft=30;fontColor=#5A6C86;dashed=0;shadow=0;labelBackgroundColor=none;" parent="5xwIzjTkguHjPRyQFBAN-197" vertex="1">
          <mxGeometry width="150" height="170" as="geometry" />
        </mxCell>
        <mxCell id="5xwIzjTkguHjPRyQFBAN-199" value="Streaming Framework" style="rounded=0;whiteSpace=wrap;html=1;strokeColor=#d79b00;labelBackgroundColor=none;rotation=0;fillColor=#ffe6cc;" parent="5xwIzjTkguHjPRyQFBAN-197" vertex="1">
          <mxGeometry y="80" width="150" height="30" as="geometry" />
        </mxCell>
        <mxCell id="5xwIzjTkguHjPRyQFBAN-200" value="Spring Boot" style="rounded=0;whiteSpace=wrap;html=1;strokeColor=#6c8ebf;labelBackgroundColor=none;rotation=0;fillColor=#dae8fc;" parent="5xwIzjTkguHjPRyQFBAN-197" vertex="1">
          <mxGeometry y="110" width="150" height="30" as="geometry" />
        </mxCell>
        <mxCell id="5xwIzjTkguHjPRyQFBAN-201" value="Docker" style="rounded=0;whiteSpace=wrap;html=1;strokeColor=#6c8ebf;labelBackgroundColor=none;rotation=0;fillColor=#dae8fc;" parent="5xwIzjTkguHjPRyQFBAN-197" vertex="1">
          <mxGeometry y="140" width="150" height="30" as="geometry" />
        </mxCell>
        <mxCell id="5xwIzjTkguHjPRyQFBAN-202" value="CDC Process" style="rounded=0;whiteSpace=wrap;html=1;strokeColor=#b85450;labelBackgroundColor=none;rotation=0;fillColor=#f8cecc;" parent="5xwIzjTkguHjPRyQFBAN-197" vertex="1">
          <mxGeometry y="50" width="150" height="30" as="geometry" />
        </mxCell>
        <mxCell id="5xwIzjTkguHjPRyQFBAN-203" value="" style="group" parent="1" vertex="1" connectable="0">
          <mxGeometry x="1582" y="280" width="150" height="170" as="geometry" />
        </mxCell>
        <mxCell id="5xwIzjTkguHjPRyQFBAN-204" value="CDC Event &lt;br&gt;Processor" style="points=[[0,0],[0.25,0],[0.5,0],[0.75,0],[1,0],[1,0.25],[1,0.5],[1,0.75],[1,1],[0.75,1],[0.5,1],[0.25,1],[0,1],[0,0.75],[0,0.5],[0,0.25]];outlineConnect=0;gradientColor=none;html=1;whiteSpace=wrap;fontSize=12;fontStyle=0;shape=mxgraph.aws4.group;grIcon=mxgraph.aws4.group_on_premise;strokeColor=#5A6C86;fillColor=none;verticalAlign=top;align=left;spacingLeft=30;fontColor=#5A6C86;dashed=0;shadow=0;labelBackgroundColor=none;" parent="5xwIzjTkguHjPRyQFBAN-203" vertex="1">
          <mxGeometry width="150" height="170" as="geometry" />
        </mxCell>
        <mxCell id="5xwIzjTkguHjPRyQFBAN-205" value="Streaming Framework" style="rounded=0;whiteSpace=wrap;html=1;strokeColor=#d79b00;labelBackgroundColor=none;rotation=0;fillColor=#ffe6cc;" parent="5xwIzjTkguHjPRyQFBAN-203" vertex="1">
          <mxGeometry y="80" width="150" height="30" as="geometry" />
        </mxCell>
        <mxCell id="5xwIzjTkguHjPRyQFBAN-206" value="Spring Boot" style="rounded=0;whiteSpace=wrap;html=1;strokeColor=#6c8ebf;labelBackgroundColor=none;rotation=0;fillColor=#dae8fc;" parent="5xwIzjTkguHjPRyQFBAN-203" vertex="1">
          <mxGeometry y="110" width="150" height="30" as="geometry" />
        </mxCell>
        <mxCell id="5xwIzjTkguHjPRyQFBAN-207" value="Docker" style="rounded=0;whiteSpace=wrap;html=1;strokeColor=#6c8ebf;labelBackgroundColor=none;rotation=0;fillColor=#dae8fc;" parent="5xwIzjTkguHjPRyQFBAN-203" vertex="1">
          <mxGeometry y="140" width="150" height="30" as="geometry" />
        </mxCell>
        <mxCell id="5xwIzjTkguHjPRyQFBAN-208" value="CDC Process" style="rounded=0;whiteSpace=wrap;html=1;strokeColor=#b85450;labelBackgroundColor=none;rotation=0;fillColor=#f8cecc;" parent="5xwIzjTkguHjPRyQFBAN-203" vertex="1">
          <mxGeometry y="50" width="150" height="30" as="geometry" />
        </mxCell>
        <mxCell id="5xwIzjTkguHjPRyQFBAN-215" value="" style="group" parent="1" vertex="1" connectable="0">
          <mxGeometry x="1612" y="32" width="150" height="170" as="geometry" />
        </mxCell>
        <mxCell id="5xwIzjTkguHjPRyQFBAN-216" value="SQData" style="points=[[0,0],[0.25,0],[0.5,0],[0.75,0],[1,0],[1,0.25],[1,0.5],[1,0.75],[1,1],[0.75,1],[0.5,1],[0.25,1],[0,1],[0,0.75],[0,0.5],[0,0.25]];outlineConnect=0;gradientColor=none;html=1;whiteSpace=wrap;fontSize=12;fontStyle=0;shape=mxgraph.aws4.group;grIcon=mxgraph.aws4.group_on_premise;strokeColor=#5A6C86;fillColor=none;verticalAlign=top;align=left;spacingLeft=30;fontColor=#5A6C86;dashed=0;shadow=0;labelBackgroundColor=none;" parent="5xwIzjTkguHjPRyQFBAN-215" vertex="1">
          <mxGeometry width="150" height="140" as="geometry" />
        </mxCell>
        <mxCell id="5xwIzjTkguHjPRyQFBAN-217" value="SQData" style="rounded=0;whiteSpace=wrap;html=1;strokeColor=#6c8ebf;labelBackgroundColor=none;rotation=0;fillColor=#dae8fc;" parent="5xwIzjTkguHjPRyQFBAN-215" vertex="1">
          <mxGeometry y="80" width="150" height="30" as="geometry" />
        </mxCell>
        <mxCell id="5xwIzjTkguHjPRyQFBAN-219" value="Docker" style="rounded=0;whiteSpace=wrap;html=1;strokeColor=#6c8ebf;labelBackgroundColor=none;rotation=0;fillColor=#dae8fc;" parent="5xwIzjTkguHjPRyQFBAN-215" vertex="1">
          <mxGeometry y="110" width="150" height="30" as="geometry" />
        </mxCell>
        <mxCell id="5xwIzjTkguHjPRyQFBAN-220" value="SQD Scripts" style="rounded=0;whiteSpace=wrap;html=1;strokeColor=#b85450;labelBackgroundColor=none;rotation=0;fillColor=#f8cecc;" parent="5xwIzjTkguHjPRyQFBAN-215" vertex="1">
          <mxGeometry y="50" width="150" height="30" as="geometry" />
        </mxCell>
        <mxCell id="5xwIzjTkguHjPRyQFBAN-221" value="" style="edgeStyle=orthogonalEdgeStyle;html=1;endArrow=none;elbow=vertical;startArrow=block;startFill=1;strokeColor=#545B64;rounded=0;fontColor=#4D4D4D;entryX=0.5;entryY=1;entryDx=0;entryDy=0;" parent="1" source="5xwIzjTkguHjPRyQFBAN-216" target="5xwIzjTkguHjPRyQFBAN-52" edge="1">
          <mxGeometry width="100" relative="1" as="geometry">
            <mxPoint x="1632" y="-86" as="sourcePoint" />
            <mxPoint x="1590" y="-86" as="targetPoint" />
            <Array as="points" />
          </mxGeometry>
        </mxCell>
        <mxCell id="GH1rInAuxu1Opuf3L_s_-3" value="&lt;h1&gt;Service Catalog&lt;/h1&gt;&lt;p&gt;Possible to use just a JSON structure rather than an Oracle database for storing config data&lt;/p&gt;" style="text;html=1;strokeColor=none;fillColor=none;spacing=5;spacingTop=-20;whiteSpace=wrap;overflow=hidden;rounded=0;" parent="1" vertex="1">
          <mxGeometry x="904" y="210" width="190" height="120" as="geometry" />
        </mxCell>
        <mxCell id="GH1rInAuxu1Opuf3L_s_-4" value="&lt;h1&gt;Decide on Streaming Use&lt;/h1&gt;&lt;p&gt;Need to determine if the Batch Framework Sink process should allow us to stream or just go straight to Oracle&lt;/p&gt;" style="text;html=1;strokeColor=none;fillColor=none;spacing=5;spacingTop=-20;whiteSpace=wrap;overflow=hidden;rounded=0;" parent="1" vertex="1">
          <mxGeometry x="810" y="22" width="360" height="120" as="geometry" />
        </mxCell>
        <mxCell id="3kaVMleEQ1TnfMhhrKNa-1" value="Debit&lt;br&gt;Processing" style="outlineConnect=0;fontColor=#232F3E;gradientColor=none;fillColor=#5A30B5;strokeColor=none;dashed=0;verticalLabelPosition=bottom;verticalAlign=top;align=center;html=1;fontSize=12;fontStyle=0;aspect=fixed;pointerEvents=1;shape=mxgraph.aws4.search_documents;shadow=0;labelBackgroundColor=none;" parent="1" vertex="1">
          <mxGeometry x="424" y="-555.5899999999999" width="68" height="78" as="geometry" />
        </mxCell>
        <mxCell id="3kaVMleEQ1TnfMhhrKNa-2" value="No Edit&lt;br&gt;Entry" style="outlineConnect=0;fontColor=#232F3E;gradientColor=none;fillColor=#5A30B5;strokeColor=none;dashed=0;verticalLabelPosition=bottom;verticalAlign=top;align=center;html=1;fontSize=12;fontStyle=0;aspect=fixed;pointerEvents=1;shape=mxgraph.aws4.search_documents;shadow=0;labelBackgroundColor=none;" parent="1" vertex="1">
          <mxGeometry x="428" y="-424.9999999999999" width="68" height="78" as="geometry" />
        </mxCell>
        <mxCell id="3kaVMleEQ1TnfMhhrKNa-3" value="&lt;h1&gt;Apache Airflow ?&lt;/h1&gt;&lt;div&gt;Carry over process&lt;/div&gt;" style="text;html=1;strokeColor=none;fillColor=none;spacing=5;spacingTop=-20;whiteSpace=wrap;overflow=hidden;rounded=0;" parent="1" vertex="1">
          <mxGeometry x="1332" y="172" width="220" height="82" as="geometry" />
        </mxCell>
        <mxCell id="3kaVMleEQ1TnfMhhrKNa-6" value="&lt;h1&gt;AER&lt;/h1&gt;" style="text;html=1;strokeColor=none;fillColor=none;spacing=5;spacingTop=-20;whiteSpace=wrap;overflow=hidden;rounded=0;" parent="1" vertex="1">
          <mxGeometry x="1782" y="-500" width="68" height="82" as="geometry" />
        </mxCell>
        <mxCell id="3kaVMleEQ1TnfMhhrKNa-7" value="" style="rounded=0;whiteSpace=wrap;html=1;strokeColor=#9999FF;" parent="1" vertex="1">
          <mxGeometry x="1040" y="-750" width="150" height="350" as="geometry" />
        </mxCell>
        <mxCell id="3kaVMleEQ1TnfMhhrKNa-8" value="AMEX Outgoing" style="rounded=0;whiteSpace=wrap;html=1;strokeColor=#b85450;labelBackgroundColor=none;rotation=-90;fillColor=#f8cecc;" parent="1" vertex="1">
          <mxGeometry x="1020" y="-615" width="250" height="30" as="geometry" />
        </mxCell>
        <mxCell id="3kaVMleEQ1TnfMhhrKNa-9" value="Batch Framework" style="rounded=0;whiteSpace=wrap;html=1;strokeColor=#d79b00;labelBackgroundColor=none;rotation=0;fillColor=#ffe6cc;" parent="1" vertex="1">
          <mxGeometry x="1040" y="-460" width="150" height="30" as="geometry" />
        </mxCell>
        <mxCell id="3kaVMleEQ1TnfMhhrKNa-10" value="Apache Spark" style="rounded=0;whiteSpace=wrap;html=1;strokeColor=#6c8ebf;labelBackgroundColor=none;rotation=0;fillColor=#dae8fc;" parent="1" vertex="1">
          <mxGeometry x="1040" y="-430" width="150" height="30" as="geometry" />
        </mxCell>
        <mxCell id="3kaVMleEQ1TnfMhhrKNa-11" value="Visa Outgoing" style="rounded=0;whiteSpace=wrap;html=1;strokeColor=#b85450;labelBackgroundColor=none;rotation=-90;fillColor=#f8cecc;" parent="1" vertex="1">
          <mxGeometry x="960" y="-615" width="250" height="30" as="geometry" />
        </mxCell>
        <mxCell id="3kaVMleEQ1TnfMhhrKNa-12" value="MC Outgoing" style="rounded=0;whiteSpace=wrap;html=1;strokeColor=#b85450;labelBackgroundColor=none;rotation=-90;fillColor=#f8cecc;" parent="1" vertex="1">
          <mxGeometry x="992.5" y="-617.5" width="250" height="35" as="geometry" />
        </mxCell>
        <mxCell id="3kaVMleEQ1TnfMhhrKNa-13" value="" style="edgeStyle=orthogonalEdgeStyle;html=1;endArrow=none;elbow=vertical;startArrow=block;startFill=1;strokeColor=#545B64;rounded=0;fontColor=#4D4D4D;exitX=0.5;exitY=1;exitDx=0;exitDy=0;" parent="1" source="3kaVMleEQ1TnfMhhrKNa-10" target="5xwIzjTkguHjPRyQFBAN-66" edge="1">
          <mxGeometry width="100" relative="1" as="geometry">
            <mxPoint x="1070" y="-400" as="sourcePoint" />
            <mxPoint x="898" y="-450" as="targetPoint" />
            <Array as="points">
              <mxPoint x="1115" y="-380" />
              <mxPoint x="1190" y="-380" />
            </Array>
          </mxGeometry>
        </mxCell>
        <mxCell id="3kaVMleEQ1TnfMhhrKNa-14" value="" style="outlineConnect=0;fontColor=#232F3E;gradientColor=none;fillColor=#3334B9;strokeColor=none;dashed=0;verticalLabelPosition=bottom;verticalAlign=top;align=center;html=1;fontSize=12;fontStyle=0;aspect=fixed;pointerEvents=1;shape=mxgraph.aws4.rds_oracle_instance;shadow=0;labelBackgroundColor=none;" parent="1" vertex="1">
          <mxGeometry x="1204" y="-990" width="78" height="78" as="geometry" />
        </mxCell>
        <mxCell id="3kaVMleEQ1TnfMhhrKNa-15" value="OLTP" style="text;html=1;strokeColor=none;fillColor=none;align=center;verticalAlign=middle;whiteSpace=wrap;rounded=0;shadow=0;labelBackgroundColor=none;fontColor=#4D4D4D;" parent="1" vertex="1">
          <mxGeometry x="1162" y="-283" width="90" height="50" as="geometry" />
        </mxCell>
        <mxCell id="3kaVMleEQ1TnfMhhrKNa-16" value="OLAP" style="text;html=1;strokeColor=none;fillColor=none;align=center;verticalAlign=middle;whiteSpace=wrap;rounded=0;shadow=0;labelBackgroundColor=none;fontColor=#4D4D4D;" parent="1" vertex="1">
          <mxGeometry x="1198" y="-920" width="90" height="50" as="geometry" />
        </mxCell>
        <mxCell id="3kaVMleEQ1TnfMhhrKNa-17" value="" style="edgeStyle=orthogonalEdgeStyle;rounded=0;orthogonalLoop=1;jettySize=auto;html=1;fontColor=#4D4D4D;exitX=0.5;exitY=0;exitDx=0;exitDy=0;" parent="1" source="5xwIzjTkguHjPRyQFBAN-108" target="3kaVMleEQ1TnfMhhrKNa-14" edge="1">
          <mxGeometry relative="1" as="geometry">
            <Array as="points">
              <mxPoint x="1430" y="-750" />
              <mxPoint x="1430" y="-951" />
            </Array>
            <mxPoint x="1570" y="-561" as="sourcePoint" />
            <mxPoint x="1690" y="-1030" as="targetPoint" />
          </mxGeometry>
        </mxCell>
        <mxCell id="3kaVMleEQ1TnfMhhrKNa-18" value="Total Analytics&lt;br&gt;Data" style="text;html=1;strokeColor=none;fillColor=none;align=center;verticalAlign=middle;whiteSpace=wrap;rounded=0;shadow=0;labelBackgroundColor=none;fontColor=#4D4D4D;" parent="1" vertex="1">
          <mxGeometry x="1332" y="-860" width="90" height="50" as="geometry" />
        </mxCell>
        <mxCell id="3kaVMleEQ1TnfMhhrKNa-19" value="Tableau" style="shape=document;whiteSpace=wrap;html=1;boundedLbl=1;" parent="1" vertex="1">
          <mxGeometry x="1054" y="-1150" width="120" height="80" as="geometry" />
        </mxCell>
        <mxCell id="3kaVMleEQ1TnfMhhrKNa-20" value="Zeppelin" style="shape=document;whiteSpace=wrap;html=1;boundedLbl=1;" parent="1" vertex="1">
          <mxGeometry x="1220" y="-1150" width="120" height="80" as="geometry" />
        </mxCell>
        <mxCell id="3kaVMleEQ1TnfMhhrKNa-22" value="" style="endArrow=classic;html=1;entryX=0.442;entryY=0.888;entryDx=0;entryDy=0;entryPerimeter=0;" parent="1" source="3kaVMleEQ1TnfMhhrKNa-14" target="3kaVMleEQ1TnfMhhrKNa-19" edge="1">
          <mxGeometry width="50" height="50" relative="1" as="geometry">
            <mxPoint x="990" y="-920" as="sourcePoint" />
            <mxPoint x="1040" y="-970" as="targetPoint" />
          </mxGeometry>
        </mxCell>
        <mxCell id="3kaVMleEQ1TnfMhhrKNa-23" value="" style="endArrow=classic;html=1;entryX=0.583;entryY=0.875;entryDx=0;entryDy=0;entryPerimeter=0;" parent="1" source="3kaVMleEQ1TnfMhhrKNa-14" target="3kaVMleEQ1TnfMhhrKNa-20" edge="1">
          <mxGeometry width="50" height="50" relative="1" as="geometry">
            <mxPoint x="1170" y="-930" as="sourcePoint" />
            <mxPoint x="1220" y="-980" as="targetPoint" />
          </mxGeometry>
        </mxCell>
        <mxCell id="3kaVMleEQ1TnfMhhrKNa-24" value="End of Day (EOD)" style="rounded=0;whiteSpace=wrap;html=1;strokeColor=#b85450;labelBackgroundColor=none;rotation=-90;fillColor=#f8cecc;" parent="1" vertex="1">
          <mxGeometry x="1343" y="-43" width="250" height="30" as="geometry" />
        </mxCell>
        <mxCell id="3kaVMleEQ1TnfMhhrKNa-25" value="&lt;h1&gt;Tokenized&lt;/h1&gt;&lt;div&gt;PII data will be tokenized and stored in Oracle at rest&lt;/div&gt;&lt;div&gt;&lt;br&gt;&lt;/div&gt;&lt;div&gt;Detokinzation for outgoing file to association&lt;/div&gt;" style="text;html=1;strokeColor=none;fillColor=none;spacing=5;spacingTop=-20;whiteSpace=wrap;overflow=hidden;rounded=0;" parent="1" vertex="1">
          <mxGeometry x="382" y="-840" width="220" height="190" as="geometry" />
        </mxCell>
      </root>
    </mxGraphModel>
  </diagram>
  <diagram id="mmwmQQAWzUjYMvKo93_u" name="Page-2">
    <mxGraphModel dx="1251" dy="751" grid="1" gridSize="10" guides="1" tooltips="1" connect="1" arrows="1" fold="1" page="1" pageScale="1" pageWidth="1100" pageHeight="850" math="0" shadow="0">
      <root>
        <mxCell id="nhNJpcuEw1zqooLNLSA--0" />
        <mxCell id="nhNJpcuEw1zqooLNLSA--1" parent="nhNJpcuEw1zqooLNLSA--0" />
      </root>
    </mxGraphModel>
  </diagram>
</mxfile>
